<?xml version="1.0" encoding="utf-8"?>
<svg xmlns="http://www.w3.org/2000/svg"
     version="1.0"
     width="2129.000000pt"
     height="2129.000000pt"
     viewBox="0 0 2129.000000 2129.000000"
     preserveAspectRatio="xMidYMid meet">
  <g transform="translate(0.000000,2129.000000) scale(0.100000,-0.100000)"
     fill="#ffffff"
     stroke="none">

    <path d="M15116 18779 c-1492 -63 -3242 -485 -4800 -1159 -1837 -794 -3645 -1994 -5063 -3361 -1501 -1448 -2651 -3176 -3193 -4799 -182 -543 -287 -1030 -351 -1624 -26 -244 -37 -790 -20 -1016 36 -471 125 -895 267 -1270 68 -177 220 -487 311 -633 611 -977 1703 -1608 3033 -1753 199 -21 681 -29 900 -15 965 64 1983 341 3158 858 1337 588 3011 1741 3832 2638 424 463 656 854 726 1225 21 111 23 330 5 430 -24 129 -85 279 -159 388 -55 81 -172 209 -268 293 -236 206 -452 342 -859 539 -234 114 -320 152 -1010 445 -741 315 -838 368 -1036 565 -97 96 -122 128 -155 194 -38 78 -39 83 -39 185 0 117 18 186 81 312 135 272 557 631 1198 1022 304 185 553 320 976 528 625 308 694 343 698 357 10 32 -127 0 -558 -129 -953 -287 -1777 -610 -2484 -972 -486 -249 -804 -465 -1056 -717 -272 -270 -406 -515 -418 -756 -10 -226 72 -405 269 -587 162 -149 346 -267 764 -487 341 -180 502 -273 685 -395 260 -172 361 -273 443 -439 55 -112 70 -177 71 -296 1 -150 -38 -268 -137 -414 -220 -325 -744 -685 -1529 -1049 -854 -397 -1612 -630 -2323 -713 -211 -25 -649 -25 -830 0 -442 61 -801 223 -1063 479 -158 154 -301 380 -387 612 -192 513 -211 1257 -54 2025 205 1002 709 2089 1457 3150 419 593 864 1099 1493 1696 522 496 833 761 1332 1135 1510 1133 3030 1860 4642 2219 1549 346 2988 292 3846 -143 331 -168 556 -380 692 -653 74 -148 81 -181 74 -384 -9 -272 -42 -423 -138 -615 -97 -195 -248 -382 -556 -686 -366 -361 -651 -579 -1148 -876 -429 -257 -849 -480 -2205 -1173 -800 -409 -1518 -787 -1790 -943 -363 -207 -688 -477 -818 -677 -72 -110 -91 -247 -51 -354 89 -239 419 -442 1427 -877 575 -249 661 -288 977 -444 360 -178 501 -257 715 -400 212 -141 341 -247 500 -412 212 -220 313 -378 367 -580 26 -93 27 -110 27 -328 0 -253 -12 -339 -75 -530 -201 -610 -950 -1393 -2024 -2114 -520 -350 -1000 -624 -1700 -971 -697 -345 -1365 -633 -2206 -950 -158 -60 -321 -124 -363 -143 -83 -39 -101 -63 -38 -53 20 3 174 24 342 46 168 22 379 52 470 66 1328 202 2931 678 4255 1262 290 128 858 410 1125 559 825 461 1516 960 2005 1448 318 317 516 582 660 880 144 301 203 550 192 810 -15 341 -155 616 -468 920 -333 324 -801 591 -1554 890 -413 163 -791 294 -1568 541 -285 90 -623 202 -750 249 -1004 363 -1293 628 -1117 1021 83 184 228 319 487 452 243 125 537 238 1378 532 1653 578 2673 1040 3474 1572 1288 857 1860 1845 1560 2695 -79 224 -198 403 -398 603 -153 152 -264 239 -453 353 -832 503 -2198 759 -3702 696z"/>
  </g>
</svg>